<?xml version="1.0" encoding="utf-8"?>
<svg viewBox="0.536 4.823 500 500" xmlns="http://www.w3.org/2000/svg">
  <g fill-rule="nonzero" fill="none" transform="matrix(-0.937991, 0.346663, 0.346663, 0.937991, 211.529877, 7.328525)">
    <path fill="#E6E7E8" d="M31.136 83.879l85.035-53.67 85.036 53.67v78.304H31.136z"/>
    <path d="M201.207 162.577H31.136a.394.394 0 01-.394-.394V83.88a.378.378 0 01.181-.33L115.96 29.91a.402.402 0 01.417 0l85.067 53.677c.117.07.189.195.189.33v78.305a.394.394 0 01-.425.354zm-169.7-.787h169.345V84.1l-84.68-53.402-84.666 53.401v77.691z" fill="#231F20"/>
    <path d="M136.887 62.8c2.827-4.666 3.544-10.339 3.284-15.784a38.428 38.428 0 00-4.592-17.034 15.387 15.387 0 00-4.915-5.634c-2.552-1.574-4.293-.511-6.79-.936-2.11-.362-4.316-1.865-6.655-2.25a21.632 21.632 0 00-15.517 3.241C93.7 29.81 90.005 40.14 81.735 45.16c-8.105 4.894-18.478 3.423-27.568 6.13a30.73 30.73 0 00-10.523 5.555 18.346 18.346 0 00-5.151 6.145c-2.135 4.453-1.576 9.756 0 14.454 1.575 4.83 4.237 9.442 8.365 12.44 3.457 2.494 7.703 3.642 11.901 4.398 5.71 1.03 11.626 1.416 17.329.18a25.263 25.263 0 0011.397-5.539c1.402-1.25 2.174-2.958 3.481-4.201 1.804-1.708 4.616-2.754 6.727-4.06 3.3-2.054 6.608-4.241 10.373-5.217 9.562-2.486 23.055-3.163 28.82-12.644z" fill="#FFF"/>
    <path d="M68.47 95.626a55.295 55.295 0 01-9.798-.96c-3.639-.653-8.294-1.754-12.05-4.453-3.758-2.699-6.68-7.082-8.492-12.59-1.291-3.933-2.363-9.732.056-14.72a18.408 18.408 0 015.245-6.295 31.037 31.037 0 0110.642-5.618 64.453 64.453 0 0111.208-1.92c5.876-.645 11.429-1.259 16.265-4.178 4.222-2.55 7.302-6.61 10.287-10.536 2.827-3.721 5.758-7.569 9.664-10.228a21.987 21.987 0 0115.753-3.329c1.254.265 2.471.683 3.624 1.244.98.458 2.008.809 3.064 1.046.798.112 1.607.13 2.41.055a6.748 6.748 0 014.505.937 15.498 15.498 0 015.041 5.751 38.523 38.523 0 014.64 17.2c.307 6.452-.788 11.802-3.34 15.98-4.726 7.727-14.398 9.702-22.952 11.449-2.159.44-4.19.85-6.089 1.345-3.395.874-6.467 2.793-9.452 4.65l-.788.512c-.787.464-1.575.897-2.402 1.322a18.647 18.647 0 00-4.261 2.698 13.442 13.442 0 00-1.575 1.944 13.175 13.175 0 01-1.907 2.266 25.476 25.476 0 01-11.61 5.68 35.702 35.702 0 01-7.687.748zm45.157-74.37c-4.17-.022-8.25 1.2-11.72 3.509-3.82 2.573-6.703 6.373-9.5 10.048-3.024 3.981-6.15 8.104-10.49 10.716-4.97 3.006-10.863 3.651-16.542 4.28-3.74.3-7.446.932-11.074 1.889a30.383 30.383 0 00-10.397 5.508 17.803 17.803 0 00-5.057 6.019c-2.284 4.768-1.268 10.347 0 14.163 1.765 5.42 4.608 9.654 8.223 12.258 3.616 2.605 8.2 3.698 11.76 4.344 6.632 1.188 12.24 1.25 17.163.18a24.743 24.743 0 0011.28-5.507 12.592 12.592 0 001.803-2.148 13.796 13.796 0 011.678-2.046 19.206 19.206 0 014.426-2.817c.843-.433 1.63-.842 2.363-1.29l.835-.52c3.017-1.88 6.136-3.831 9.641-4.72 1.922-.496 3.938-.913 6.12-1.354 8.42-1.707 17.95-3.65 22.488-11.11l.307.19-.307-.19c2.441-4.028 3.528-9.268 3.23-15.579a37.736 37.736 0 00-4.546-16.877 14.891 14.891 0 00-4.789-5.508 5.984 5.984 0 00-4.088-.787c-.858.073-1.722.05-2.575-.07a15.07 15.07 0 01-3.214-1.094 15.229 15.229 0 00-3.434-1.157 21.405 21.405 0 00-3.584-.33z" fill="#231F20"/>
    <path d="M169.023 55.09l-4.143 15.578 9.98 1.778 5.686-20.811s-8.869-6.782-10.24-6.83c-1.37-.047-1.283 10.284-1.283 10.284z" fill="#FFF"/>
    <path d="M174.86 72.84h-.071l-9.964-1.755a.386.386 0 01-.307-.488l4.111-15.508c0-1.668 0-9.316 1.166-10.441a.678.678 0 01.52-.212c1.41.047 8.955 5.767 10.46 6.908a.401.401 0 01.142.417l-5.695 20.811a.386.386 0 01-.362.268zm-9.452-2.463l9.184 1.62 5.513-20.213c-4.26-3.241-9.034-6.562-9.79-6.585-.56.417-.906 5.508-.875 9.914a.4.4 0 010 .102l-4.032 15.162z" fill="#231F20"/>
    <path d="M158.24 44.9s1.41 3.147 3.442 3.659c2.032.511 6.451-1.669 6.963-1.385.512.283 12.17 9.001 13.303 9.26 1.135.26 3.222-2.486 4.112-5.751 0 0-11.342-7.727-12.083-8.545-.74-.818-1.622-5.712-2.725-7.506L158.24 44.9z" fill="#FFF"/>
    <path d="M182.067 56.852a1.301 1.301 0 01-.245 0c-.708-.173-4.426-2.81-10.61-7.318-1.393-1.023-2.606-1.896-2.756-1.99-.15-.095-.945.283-1.575.503-1.647.543-3.9 1.29-5.27.929-2.19-.583-3.639-3.754-3.702-3.887a.377.377 0 01.11-.465l12.989-10.228a.41.41 0 01.315-.079c.11.023.206.088.268.181a21.34 21.34 0 011.575 4.383c.237 1.06.602 2.088 1.087 3.06.52.575 7.467 5.39 12.012 8.49.141.091.205.264.157.425-.811 2.864-2.82 5.996-4.355 5.996zM168.51 46.757a.654.654 0 01.323.07c.165.087.992.693 2.843 2.038 3.151 2.274 9.586 6.995 10.327 7.192.74.197 2.615-1.975 3.568-5.209-1.914-1.298-11.209-7.656-11.918-8.45-.401-.44-.74-1.574-1.268-3.368a27.7 27.7 0 00-1.284-3.8l-12.374 9.78c.386.74 1.576 2.777 3.049 3.147 1.15.3 3.363-.433 4.82-.912a7.584 7.584 0 011.914-.488z" fill="#231F20"/>
    <path d="M170.638 37.567a4.221 4.221 0 00.449 2.415c.638 1.141 3.465 2.66 3.465 2.66l1.97-3.934-3.86-2.786-2.024 1.645z" fill="#231F20"/>
    <path d="M174.552 43.035a.363.363 0 01-.18-.047c-.308-.158-2.955-1.613-3.624-2.817a4.614 4.614 0 01-.496-2.66.378.378 0 01.134-.243l2.024-1.668a.394.394 0 01.488 0l3.852 2.785c.154.11.207.316.126.488l-1.97 3.934a.394.394 0 01-.235.197.308.308 0 01-.119.031zm-3.536-5.256a3.805 3.805 0 00.417 2.014c.41.787 2.04 1.786 2.954 2.314l1.63-3.29-3.34-2.415-1.661 1.377z" fill="#231F20"/>
    <path d="M182.988 48.598s1.032-3.25-.788-3.478a1.668 1.668 0 00-2.52-1.337s-.583-2.416-2.489-1.928-3.418 5.043-3.15 6.192c.267 1.149 1.748.449 2.496-.63 0 0-.969 1.795-.323 2.267.945.692 1.938-.535 2.741-1.432 0 0-1.189 2.1.56 2.29 1.346.149 2.599-2.566 2.599-2.566l.874.622z" fill="#FFF"/>
    <path d="M179.585 50.943h-.15c-.718 0-1.302-.58-1.307-1.299-.653.575-1.41.937-2.19.362a1.21 1.21 0 01-.354-1.235c-.34.213-.744.3-1.142.244a1.04 1.04 0 01-.827-.873c-.291-1.33 1.276-6.098 3.45-6.657a2.026 2.026 0 011.623.205c.56.384.984.934 1.213 1.573a1.987 1.987 0 011.575.095 2.36 2.36 0 011.008 1.424c.343.099.637.32.827.621.701 1.094.095 3.085 0 3.313a.37.37 0 01-.244.252.402.402 0 01-.355-.048l-.535-.37c-.378.803-1.386 2.393-2.592 2.393zm-.669-3.085a.37.37 0 01.236.079c.159.12.205.337.11.511-.173.307-.472 1.063-.283 1.432 0 .055.11.229.543.276.788.086 1.828-1.574 2.198-2.36a.402.402 0 01.252-.213.378.378 0 01.33.055l.442.307a3.31 3.31 0 00-.07-2.132.717.717 0 00-.544-.315.401.401 0 01-.34-.339 1.723 1.723 0 00-.676-1.125 1.49 1.49 0 00-1.3.095.402.402 0 01-.33 0 .41.41 0 01-.214-.26 2.77 2.77 0 00-.992-1.526 1.277 1.277 0 00-1.016-.11c-1.678.424-3.088 4.72-2.875 5.72.055.244.157.267.213.275a2.166 2.166 0 001.575-1.046c.12-.17.35-.219.528-.11a.401.401 0 01.141.519c-.401.787-.622 1.636-.44 1.77.55.401 1.204-.244 2.055-1.188l.166-.189a.402.402 0 01.291-.126z" fill="#231F20"/>
    <path d="M174.568 38.85s-1.079-1.873-2.213-.229c-1.134 1.644-2.497 4.72-.607 5.051 1.89.33 3.308-3.194 2.82-4.823z" fill="#FFF"/>
    <path d="M171.992 44.074a2.019 2.019 0 01-.307 0 1.418 1.418 0 01-1.134-.85c-.551-1.314.67-3.651 1.48-4.815a1.63 1.63 0 011.371-.85c.867.04 1.442.999 1.505 1.101l.04.087a5.504 5.504 0 01-1.222 4.445 2.364 2.364 0 01-1.733.882zm1.355-5.752c-.26 0-.512.275-.67.504-.952 1.376-1.732 3.273-1.401 4.067.095.215.3.36.535.378a1.52 1.52 0 001.324-.622 4.765 4.765 0 001.063-3.658c-.126-.205-.48-.653-.835-.669h-.016z" fill="#231F20"/>
    <path d="M169.015 56.143s-1.244-5.94-1.363-7.002c-.196-1.802.229-4.619 1.812-5.06 1.583-.44 5.207-.857 4.608.732-.544 1.448-3.718 1.723-3.718 1.723s2.19 2.203 1.859 4.399" fill="#FFF"/>
    <path d="M169.015 56.537a.394.394 0 01-.386-.307c-.047-.244-1.244-5.98-1.362-7.081-.205-1.842.189-4.95 2.095-5.508.992-.275 4.025-.842 4.915.126.274.305.34.745.165 1.117-.449 1.212-2.26 1.692-3.308 1.88.662.835 1.725 2.48 1.465 4.163a.398.398 0 01-.788-.118c.3-1.975-1.725-4.044-1.74-4.06a.409.409 0 01-.095-.417.394.394 0 01.339-.252c.787-.07 3.009-.472 3.379-1.471.086-.213 0-.276 0-.307-.418-.464-2.6-.323-4.128.094-1.283.354-1.709 2.92-1.52 4.635.118 1.03 1.347 6.916 1.355 6.97a.385.385 0 01-.307.465l-.079.07z" fill="#231F20"/>
    <path d="M192.275 33.617s-13.123-1.298-18.479 1.802a34.39 34.39 0 00-3.86 2.675c-2.906 2.274-5.639 4.854-7.766 6.294-4.221 2.833-8.301 3.407-11.082-1.101-2.363-3.848-.984-5.673 2.213-9.096 1.576-1.692 4.915-4.485 7.79-7.577a24.322 24.322 0 004.254-5.822c2.426-5.099 1.74-12.912 1.74-12.912l25.19 25.737z" fill="#FFF"/>
    <path d="M156.27 46.977a5.533 5.533 0 01-1.26-.134 6.725 6.725 0 01-4.253-3.336c-2.544-4.123-.976-6.113 2.253-9.575.677-.724 1.654-1.637 2.788-2.684 1.576-1.463 3.348-3.147 5.01-4.894a23.692 23.692 0 004.182-5.72c2.363-4.957 1.71-12.668 1.702-12.746a.401.401 0 01.228-.394.386.386 0 01.449.087l25.205 25.76a.393.393 0 01.07.441.402.402 0 01-.393.228c-.134 0-13.06-1.25-18.242 1.763a33.76 33.76 0 00-3.812 2.643c-1.19.937-2.363 1.912-3.458 2.849a53.354 53.354 0 01-4.332 3.446c-2.284 1.51-4.332 2.266-6.136 2.266zM167.543 8.88c.095 2.36.087 8.01-1.835 12.094a24.739 24.739 0 01-4.324 5.916c-1.678 1.802-3.466 3.462-5.05 4.934-1.118 1.038-2.094 1.943-2.748 2.644-3.15 3.344-4.41 4.98-2.158 8.655a6.017 6.017 0 003.749 2.99c1.875.409 4.151-.276 6.774-2.03a50.708 50.708 0 004.261-3.384c1.126-.944 2.284-1.928 3.482-2.864a34.847 34.847 0 013.938-2.714c4.56-2.652 14.39-2.196 17.651-1.952L167.542 8.88z" fill="#231F20"/>
    <path d="M170.638 37.567c-2.907 2.274-6.42 5.287-8.468 6.814-4.678 3.493-7.64 3.863-10.696-.457-3.15-4.438-1.37-6.294 1.827-9.725 1.576-1.692 4.915-4.485 7.79-7.577 0 0 .181 3.218 3.387 7.144a11.17 11.17 0 006.16 3.8z" fill="#231F20"/>
    <path d="M156.24 47.473a4.374 4.374 0 01-.725-.055c-1.576-.244-2.962-1.283-4.364-3.266-3.316-4.681-1.378-6.75 1.82-10.181.716-.787 1.693-1.676 2.827-2.723 1.576-1.463 3.348-3.147 5.01-4.894a.378.378 0 01.417-.102c.148.053.25.19.26.346 0 0 .229 3.148 3.3 6.916a10.871 10.871 0 005.924 3.667.41.41 0 01.315.291.425.425 0 01-.142.41c-1.34 1.046-2.796 2.242-4.214 3.398-1.623 1.33-3.15 2.59-4.261 3.415-2.513 1.896-4.482 2.778-6.168 2.778zm4.584-19.993c-1.505 1.573-3.08 3.037-4.49 4.343-1.119 1.038-2.095 1.943-2.749 2.644-3.15 3.39-4.726 5.067-1.788 9.229 1.268 1.794 2.489 2.73 3.836 2.943 1.63.251 3.568-.535 6.301-2.573 1.095-.787 2.623-2.07 4.238-3.391 1.197-.984 2.426-1.991 3.591-2.92a11.705 11.705 0 01-5.592-3.745 15.73 15.73 0 01-3.347-6.53z" fill="#231F20"/>
    <path d="M195.914 32.507c-2.938 2.636-9.452.441-15.793-4.917a45.642 45.642 0 01-8.412-9.371c-4.726-6.94-6.199-13.66-3.237-16.311 3.654-3.281 12.775.905 20.36 9.355 7.586 8.45 10.752 17.955 7.082 21.244z" fill="#7C5DFA"/>
    <path d="M171.772.798c4.466 0 11.208 3.982 17.037 10.473 7.593 8.45 10.775 17.955 7.089 21.244a4.832 4.832 0 01-3.324 1.118c-3.332 0-7.924-2.211-12.469-6.035a45.418 45.418 0 01-4.568-4.438 45.642 45.642 0 01-3.828-4.941c-4.726-6.94-6.199-13.66-3.237-16.311a4.84 4.84 0 013.3-1.11m0-.786a5.58 5.58 0 00-3.852 1.321c-3.205 2.872-1.953 9.836 3.112 17.31a47.8 47.8 0 008.553 9.553c4.726 3.934 9.452 6.215 12.973 6.215a5.58 5.58 0 003.883-1.353c2.025-1.81 2.363-5.193.89-9.52a38.548 38.548 0 00-7.931-12.833C183.524 4.22 176.624.012 171.772.012z" fill="#231F20"/>
    <path d="M185.359 21.043l-5.238 6.547a45.642 45.642 0 01-8.412-9.371l7.577-4.65 6.073 7.474z" fill="#FFF"/>
    <ellipse fill="#231F20" transform="rotate(-39.4 182.308 17.334)" cx="182.308" cy="17.334" rx="2.244" ry="4.817"/>
    <path d="M184.556 21.689c-1.237 0-2.907-1-4.301-2.7a8.786 8.786 0 01-1.733-3.194c-.291-1.133-.126-2.022.465-2.502.59-.48 1.489-.472 2.544 0a8.662 8.662 0 012.78 2.353c1.86 2.258 2.419 4.76 1.276 5.704-.296.225-.66.344-1.031.339zm-4.498-7.963a.883.883 0 00-.575.173c-.33.275-.402.897-.197 1.7a7.866 7.866 0 001.575 2.895c1.655 2.014 3.56 2.801 4.238 2.243.677-.56.276-2.581-1.378-4.596a7.993 7.993 0 00-2.56-2.108 2.759 2.759 0 00-1.103-.307zM178.916 48.645a.37.37 0 01-.197-.055.386.386 0 01-.142-.535 9.515 9.515 0 011.796-2.148.394.394 0 11.504.598 9.184 9.184 0 00-1.575 1.951.402.402 0 01-.386.19zM176.498 47.811h-.063a.394.394 0 01-.307-.464 5.012 5.012 0 011.882-2.801.394.394 0 01.473.63 4.272 4.272 0 00-1.576 2.32.402.402 0 01-.41.315zM182.074 48.37a.393.393 0 01-.315-.622l.536-.787a.41.41 0 01.551-.094.401.401 0 01.095.55l-.544.787a.378.378 0 01-.323.166z" fill="#231F20"/>
    <path d="M157.216 46.678a.387.387 0 01-.236-.079c-3.482-2.643-5.64-5.854-6.065-9.032v-.087a.393.393 0 01.173-.448.386.386 0 01.544.125c.046.096.073.2.078.307.402 2.975 2.442 5.996 5.766 8.506a.393.393 0 01-.244.708h-.016zM155.27 34.12a.378.378 0 01-.283-.133.385.385 0 010-.551l4.238-3.934a.378.378 0 01.55 0 .385.385 0 010 .55l-4.237 3.935a.378.378 0 01-.267.133zM155.853 35.065a.426.426 0 01-.291-.126.401.401 0 010-.559l4.238-3.934a.394.394 0 01.667.28.393.393 0 01-.116.279l-4.23 3.934a.418.418 0 01-.268.126zM156.523 36.15a.362.362 0 01-.284-.126.385.385 0 010-.55l4.238-3.934a.378.378 0 01.551 0 .385.385 0 010 .55l-4.237 3.934a.37.37 0 01-.268.126z" fill="#FFF"/>
    <path d="M86.422 96.838l-1.977 43.606s26.977.322 42.494-6.153a101.881 101.881 0 014.6-12.188c2.276-4.595 12.05-11.37 8.979-28.963 0 0 23.03 14.556 29.521 7.868 6.49-6.688 9.736-37.925 9.736-37.925l-13.485-4.327-6.128 19.261S121.299 59.236 112.24 56.86c-3.363-.88-13.816 4.674-25.796 12.361" fill="#7C5DFA"/>
    <path d="M111.406 69.936s6.246 19.388 7.317 27.594c1.072 8.207 1.23 21.772 1.23 21.772s9.884-30.246 8.663-48.925l-17.21-.44z" fill="#231F20"/>
    <path d="M119.952 119.656h-.047a.346.346 0 01-.3-.339c0-.133-.173-13.643-1.228-21.732-1.056-8.088-7.239-27.342-7.302-27.538a.354.354 0 01.339-.457l17.202.44c.181 0 .33.143.339.323 1.22 18.53-8.57 48.783-8.664 49.059a.347.347 0 01-.339.244zm-8.066-49.358c.954 3.006 6.215 19.75 7.184 27.185.788 6.185 1.095 15.508 1.19 19.67 2.15-7.08 8.94-30.82 8.025-46.422l-16.399-.433zM79.94 163.592h74.44l-27.418-29.301-42.494 6.153s-5.088 11.503-4.608 19.576c.032.952.056 2.171.08 3.572z" fill="#231F20"/>
    <path d="M154.38 163.985H79.94a.387.387 0 01-.395-.385c0-1.322-.047-2.589-.102-3.557-.48-8.08 4.427-19.285 4.64-19.765a.41.41 0 01.299-.228l42.533-6.153a.41.41 0 01.347.126l27.418 29.301a.393.393 0 01-.292.661h-.008zm-74.04-.787h73.127l-26.654-28.49-42.077 6.09c-.67 1.573-4.93 11.889-4.49 19.198.04.89.095 2.014.095 3.202z" fill="#231F20"/>
    <path d="M126.474 59.511l2.134 10.866s.056 6.295-6.923 5.689a13.92 13.92 0 01-10.279-6.13l-2.828-18.978a34.302 34.302 0 00-.835-10.3c8.027-1.66 13.21-8.922 13.21-8.922s3.552 3.62 5.001 4.721a16.535 16.535 0 013.15 2.81c1.52 1.88 1.97 4.508 2.364 6.829.495 2.755.74 5.549.732 8.348-.126 5.311-5.726 5.067-5.726 5.067z" fill="#FFF"/>
    <path d="M122.59 76.467h-.937a14.18 14.18 0 01-10.554-6.294.456.456 0 01-.047-.134s-2.82-18.884-2.828-18.978a4.802 4.802 0 010-.952 31.897 31.897 0 00-.835-9.332.322.322 0 01.047-.268.362.362 0 01.229-.157c7.79-1.574 12.933-8.71 12.98-8.781a.37.37 0 01.268-.15c.107-.01.212.031.284.11.039 0 3.552 3.612 4.97 4.674a16.92 16.92 0 013.15 2.864c1.576 1.983 2.056 4.721 2.434 6.995.501 2.776.75 5.591.74 8.411a5.182 5.182 0 01-1.575 3.872 6.62 6.62 0 01-4.072 1.573l2.056 10.441a6.621 6.621 0 01-1.922 4.627 6.306 6.306 0 01-4.387 1.48zm-10.837-6.656a13.692 13.692 0 009.963 5.9c2.08.174 3.702-.259 4.829-1.298a5.992 5.992 0 001.701-4.036l-2.127-10.795a.393.393 0 01.08-.307.339.339 0 01.29-.126 6.156 6.156 0 004.002-1.377 4.537 4.537 0 001.315-3.352 45.872 45.872 0 00-.732-8.285c-.386-2.258-.788-4.831-2.284-6.656a16.432 16.432 0 00-3.049-2.746c-1.228-.921-3.867-3.549-4.726-4.446-1.126 1.456-5.844 7.081-12.815 8.655.704 3.002.97 6.09.788 9.167a4.889 4.889 0 000 .786s-.032.197 2.765 18.916z" fill="#231F20"/>
    <path d="M127.427 64.861s-4.38 1.031-7.782-1.369c-3.403-2.4-3.545-5.444-3.545-5.444s5.388 2.29 10.374 1.463l.953 5.35z" fill="#231F20"/>
    <path d="M125.135 65.436a9.845 9.845 0 01-5.687-1.66c-3.505-2.471-3.663-5.54-3.663-5.713a.322.322 0 01.15-.299.331.331 0 01.33-.039c.056 0 5.365 2.242 10.185 1.44a.347.347 0 01.394.283l.961 5.35a.346.346 0 01-.268.402 10.81 10.81 0 01-2.402.236zm-8.562-6.845a7.916 7.916 0 003.3 4.618c2.718 1.92 6.136 1.574 7.184 1.377l-.835-4.682c-4.057.56-8.184-.763-9.649-1.313z" fill="#231F20"/>
    <path d="M120.661 40.981s4.497 4.564 3.836 5.626c-.662 1.062-3.104.913-3.104.913" fill="#FFF"/>
    <path d="M121.772 47.874h-.402a.347.347 0 01-.323-.37.354.354 0 01.37-.33c.622 0 2.363 0 2.788-.74.268-.44-1.496-2.872-3.788-5.2a.347.347 0 11.496-.489c1.41 1.432 4.608 4.887 3.883 6.059-.598.952-2.245 1.07-3.024 1.07z" fill="#231F20"/>
    <ellipse fill="#231F20" transform="rotate(-13.01 126.624 42.344)" cx="126.624" cy="42.344" rx="1" ry="1.149"/>
    <ellipse fill="#231F20" transform="rotate(-13.01 116.589 43.363)" cx="116.589" cy="43.363" rx="1" ry="1.149"/>
    <path d="M111.154 44.695c-1.095-1.77-3.655-2.014-5.443-1.298a3.148 3.148 0 00-2.087 2.848c-.014.773.125 1.54.41 2.258a11.87 11.87 0 002.11 3.69 4.253 4.253 0 001.647 1.323c.839.296 1.774.053 2.363-.614" fill="#FFF"/>
    <path d="M108.531 54.02c-.297-.001-.59-.057-.866-.166a4.725 4.725 0 01-1.796-1.424 12.35 12.35 0 01-2.174-3.8 6.289 6.289 0 01-.433-2.408 3.51 3.51 0 012.315-3.148c1.97-.786 4.726-.472 5.884 1.44a.362.362 0 01-.614.378c-.985-1.574-3.308-1.833-5.002-1.157a2.817 2.817 0 00-1.874 2.526 5.59 5.59 0 00.385 2.124 11.563 11.563 0 002.048 3.58c.393.523.91.94 1.505 1.212.712.25 1.505.041 2-.527a.363.363 0 11.512.504c-.489.528-1.17.84-1.89.865z" fill="#231F20"/>
    <path d="M125.072 48.936l-5.27.512s1.095 8.135 3.466 7.915c2.37-.22 2.379-6.098 1.804-8.427z" fill="#FFF"/>
    <path d="M123.166 57.717c-2.481 0-3.529-6.83-3.71-8.222a.307.307 0 01.07-.26.315.315 0 01.237-.134l5.277-.511a.347.347 0 01.37.26c.45 1.81.6 6.145-.708 7.978-.31.49-.826.814-1.402.881l-.134.008zm-2.97-7.955c.441 2.975 1.576 7.255 2.97 7.255h.07a1.26 1.26 0 00.899-.59c1.031-1.456 1.079-5.099.669-7.082l-4.608.417zM138.257 112.024a.355.355 0 01-.3-.543c.056-.103 5.845-9.828.308-30.08a.37.37 0 01.252-.441.355.355 0 01.441.252c5.632 20.583-.142 30.245-.394 30.686a.347.347 0 01-.307.126z" fill="#231F20"/>
    <path fill="#FFF" d="M31.136 83.879l85.035 61.285 85.036-61.285v100.54H31.136z"/>
    <path d="M201.207 184.812H31.136a.394.394 0 01-.394-.393V83.879a.378.378 0 01.213-.346.386.386 0 01.41 0l84.806 61.112 84.8-61.112a.386.386 0 01.409 0c.134.063.22.198.22.346v100.54a.401.401 0 01-.393.393zm-169.7-.786h169.345V84.65L116.4 145.48a.394.394 0 01-.465 0L31.506 84.65v99.376z" fill="#231F20"/>
    <path d="M31.136 184.812a.395.395 0 01-.347-.204.401.401 0 01.15-.535l77.805-44.463a.394.394 0 01.535.149.385.385 0 01-.141.535l-77.813 44.463a.402.402 0 01-.189.055zM201.207 184.812a.434.434 0 01-.197-.055l-77.805-44.463a.393.393 0 01-.15-.535.402.402 0 01.536-.15l77.805 44.464a.393.393 0 01.15.535.386.386 0 01-.34.204z" fill="#231F20"/>
    <path d="M71.677 138.303s3.442 8.954 4.253 9.442c.811.488 10.397 4.406 9.712 6.24-.685 1.833-5.002-.402-5.002-.402s6.215 7.184 4.576 8.451c-1.638 1.267-7.151 3.84-9.365 2.793-2.213-1.046-13.248-14.706-15.587-20.638" fill="#FFF"/>
    <path d="M77.19 165.488a3.532 3.532 0 01-1.496-.283c-2.363-1.125-13.47-14.95-15.793-20.85a.396.396 0 11.74-.284c2.364 6.05 13.47 19.513 15.384 20.457 1.914.944 7.293-1.448 8.963-2.746a.37.37 0 00.118-.26c.15-1.573-3.387-6.034-4.726-7.624a.393.393 0 01.48-.606c.788.41 3.041 1.385 4.05 1a.646.646 0 00.401-.394c.189-.511-1.055-1.794-8.073-5.043-.851-.394-1.3-.606-1.481-.724-.851-.543-3.592-7.53-4.411-9.654a.393.393 0 11.732-.284c1.639 4.257 3.624 8.891 4.112 9.285.134.086.709.354 1.378.66 5.656 2.613 9.043 4.54 8.483 6.036-.146.397-.46.71-.858.857a5.109 5.109 0 01-3.15-.362c1.52 1.897 4.032 5.303 3.874 6.924a1.133 1.133 0 01-.417.787c-1.3.984-5.49 3.108-8.31 3.108z" fill="#231F20"/>
    <path d="M86.445 69.252C66.187 82.25 41.55 101.378 39.47 105.847c-3.323 7.081 21.535 42.693 21.535 42.693l13.461-8.53-12.303-26.696 24.26-16.484" fill="#7C5DFA"/>
    <path d="M70.889 107.806a.355.355 0 01-.3-.15.37.37 0 01.087-.503l27.237-19.049a.355.355 0 01.505.087.362.362 0 01-.095.503l-27.23 19.05a.332.332 0 01-.204.062zM189.234 161.79l33.01-20.182-27.969 11.637z" fill="#231F20"/>
    <path d="M189.234 162.183a.386.386 0 01-.275-.118.393.393 0 01-.063-.48l5.04-8.537a.37.37 0 01.182-.165l28-11.637a.394.394 0 01.355.7l-33.034 20.15a.465.465 0 01-.205.087zm5.31-8.655l-4.168 7.082 27.324-16.704-23.157 9.622z" fill="#231F20"/>
    <path fill="#FFF" d="M194.275 153.245l10.791 5.516 17.179-17.153z"/>
    <path d="M205.066 159.115a.323.323 0 01-.165-.04l-10.791-5.507a.346.346 0 01-.197-.33.378.378 0 01.22-.323l27.986-11.637a.363.363 0 01.433.133.346.346 0 01-.047.449l-17.179 17.153a.331.331 0 01-.26.102zm-9.94-5.83l9.87 5.035L220.7 142.64l-25.575 10.645z" fill="#231F20"/>
    <path fill="#FFF" d="M222.245 141.608l-35.54 8.482-8.08-4.619z"/>
    <path d="M186.674 150.444a.339.339 0 01-.173-.047l-8.09-4.61a.362.362 0 01.15-.67l43.62-3.863a.362.362 0 01.387.299.362.362 0 01-.268.41l-35.539 8.473-.087.008zm-6.907-4.72l6.963 3.973 30.663-7.27-37.626 3.296z" fill="#231F20"/>
    <path fill="#FFF" d="M186.706 150.09l2.528 11.7 5.041-8.545 27.97-11.637z"/>
    <path d="M189.234 162.152h-.055a.362.362 0 01-.3-.275l-2.52-11.708a.354.354 0 01.268-.425l35.54-8.474a.356.356 0 01.22.676l-27.836 11.59-4.978 8.435a.355.355 0 01-.339.181zm-2.103-11.802l2.26 10.457 4.57-7.75a.402.402 0 01.172-.15l23.835-9.914-30.837 7.357z" fill="#231F20"/>
    <path d="M181.948 163.419a.394.394 0 01-.204-.724l1.315-.842a.396.396 0 01.433.66l-1.33.85a.426.426 0 01-.214.056zM62.713 199.47a.401.401 0 01-.394-.392c0-.215.172-.39.386-.394l1.875-.04 1.268-.039a.41.41 0 01.41.378.393.393 0 01-.386.41l-1.268.039-1.883.039h-.008zm-3.15 0c-1.072 0-2.127-.046-3.151-.086a.401.401 0 01-.378-.409.393.393 0 01.41-.377c1.023.039 2.07.07 3.15.086a.394.394 0 01.394.394.401.401 0 01-.418.393h-.007zm9.451-.212a.386.386 0 01-.386-.37.393.393 0 01.37-.416 143.63 143.63 0 003.151-.181.386.386 0 01.418.37.385.385 0 01-.363.417c-1.047.07-2.095.133-3.15.18h-.04zm-15.713-.055a95.648 95.648 0 01-3.151-.283.394.394 0 01-.347-.433.378.378 0 01.434-.346c1.016.102 2.055.197 3.15.276a.394.394 0 110 .786h-.086zm21.999-.354a.394.394 0 110-.786c1.047-.087 2.087-.181 3.15-.284a.41.41 0 01.434.354.393.393 0 01-.355.433c-1.05.1-2.1.194-3.15.283h-.08zm-28.261-.322h-.055c-1.056-.158-2.103-.33-3.151-.52a.4.4 0 11.15-.786c1 .188 2.04.362 3.087.511a.394.394 0 01.331.449.402.402 0 01-.378.346h.016zm34.53-.284a.395.395 0 11-.047-.786c1.05-.116 2.1-.242 3.151-.378a.397.397 0 11.102.787l-3.15.37-.055.007zm6.247-.786a.402.402 0 01-.394-.339.393.393 0 01.339-.448l3.103-.464a.386.386 0 01.449.322.393.393 0 01-.323.457l-3.15.464-.024.008zm-46.952-.079h-.095a72.266 72.266 0 01-3.064-.787.401.401 0 01-.268-.488.394.394 0 01.489-.267c.976.275 1.992.543 3.024.787a.386.386 0 01.292.472.394.394 0 01-.394.275l.016.008zm53.166-.905a.386.386 0 01-.386-.322.401.401 0 01.323-.457l3.096-.55a.386.386 0 01.457.314.393.393 0 01-.315.456l-3.104.56h-.07zm-59.223-.857a.355.355 0 01-.127 0 52.574 52.574 0 01-2.961-1.141.394.394 0 01.307-.724c.937.393 1.922.787 2.914 1.125a.4.4 0 11-.133.787v-.047zm65.375-.3a.402.402 0 01-.386-.314.393.393 0 01.307-.464l3.08-.646a.394.394 0 01.465.307.385.385 0 01-.3.464l-3.087.646-.08.008zm6.16-1.321a.396.396 0 01-.087-.787c1.024-.236 2.04-.472 3.056-.724.21-.05.422.08.472.291a.393.393 0 01-.291.48c-1.016.244-2.032.488-3.064.716l-.087.024zm-77.34-.842a.418.418 0 01-.182-.047 34.933 34.933 0 01-2.764-1.574.393.393 0 01-.126-.543.386.386 0 01.543-.126 40.365 40.365 0 002.71 1.519.404.404 0 11-.182.786v-.015zm83.491-.645a.397.397 0 11-.095-.787l3.04-.787a.407.407 0 01.206.787c-1.009.273-2.025.535-3.049.787a.213.213 0 01-.118 0h.016zm6.08-1.645a.386.386 0 01-.377-.283.401.401 0 01.275-.488l3.017-.873a.394.394 0 01.488.26.385.385 0 01-.267.487c-1 .3-2.009.598-3.025.881a.268.268 0 01-.126.016h.016zm-94.888-1.015a.386.386 0 01-.236-.079 32.502 32.502 0 01-2.458-2.014.393.393 0 01.551-.558c.768.695 1.57 1.351 2.403 1.967.174.13.209.377.078.55a.402.402 0 01-.338.134zm100.906-.787a.378.378 0 01-.37-.275.393.393 0 01.26-.496c1.008-.307 2-.63 2.993-.944a.386.386 0 01.496.252.393.393 0 01-.252.495c-.992.323-1.992.638-3.008.953a.307.307 0 01-.119.023v-.008zm5.994-1.943a.399.399 0 11-.126-.787c1-.338 1.993-.677 2.97-1.023.206-.068.43.04.504.244a.385.385 0 01-.236.496c-.985.346-1.977.692-2.986 1.03l-.126.04zm-111.54-1.495a.41.41 0 01-.299-.134 28.33 28.33 0 01-1.985-2.486.393.393 0 11.638-.457 26.828 26.828 0 001.938 2.416.401.401 0 010 .559.394.394 0 01-.291.11v-.008zm117.48-.582a.41.41 0 01-.37-.26.393.393 0 01.235-.504c1-.362 1.977-.731 2.954-1.093a.394.394 0 01.276.731c-.977.37-1.961.732-2.962 1.094a.26.26 0 01-.134.04v-.008zm5.891-2.227a.4.4 0 01-.142-.787l2.922-1.157c.2-.081.429.014.512.213a.401.401 0 01-.212.52l-2.93 1.195a.497.497 0 01-.15.024v-.008zm-127.01-2.298a.386.386 0 01-.346-.204 27.471 27.471 0 01-1.378-2.872.395.395 0 11.732-.3c.387.96.834 1.892 1.34 2.794.1.192.03.428-.158.535a.418.418 0 01-.19.047zm132.854-.055a.378.378 0 01-.362-.244.393.393 0 01.205-.511c.984-.41 1.953-.787 2.898-1.227a.395.395 0 01.316.723l-2.907 1.228a.339.339 0 01-.15.031zm5.782-2.494a.41.41 0 01-.363-.228.385.385 0 01.205-.52c.977-.44 1.93-.865 2.86-1.298a.395.395 0 01.33.716c-.937.433-1.89.866-2.875 1.299a.355.355 0 01-.157.031zm5.726-2.628a.378.378 0 01-.354-.22.393.393 0 01.18-.527c.977-.457 1.923-.913 2.836-1.362a.395.395 0 01.347.709l-2.844 1.369a.41.41 0 01-.165.031zm-146.74-.653a.394.394 0 01-.378-.291 28.685 28.685 0 01-.693-3.108.398.398 0 01.787-.126c.158 1.03.373 2.048.646 3.053a.393.393 0 01-.268.488l-.094-.016zm152.38-2.1a.386.386 0 01-.355-.221.393.393 0 01.174-.527c.968-.488 1.906-.96 2.804-1.432a.395.395 0 01.362.7c-.898.464-1.835.944-2.812 1.432a.363.363 0 01-.173.047zm5.592-2.904a.386.386 0 01-.347-.205.401.401 0 01.158-.535c.977-.52 1.898-1.023 2.765-1.495a.394.394 0 11.378.685c-.867.48-1.788.983-2.773 1.51a.363.363 0 01-.157.04H171zm-159.028-1.157a.394.394 0 01-.393-.37c0-.613-.048-1.243-.048-1.864v-1.314a.385.385 0 01.41-.378.394.394 0 01.378.41v1.282c0 .606 0 1.22.047 1.817a.393.393 0 01-.37.417h-.024zm164.542-1.888a.394.394 0 01-.197-.732c1.016-.582 1.93-1.11 2.717-1.574a.394.394 0 01.544.134c.11.188.05.428-.134.543a91.573 91.573 0 01-2.733 1.574.426.426 0 01-.174.055h-.023zm-164.266-4.383h-.055a.401.401 0 01-.339-.448c.142-1.031.323-2.085.56-3.148.05-.21.26-.343.472-.299a.394.394 0 01.3.473 34.676 34.676 0 00-.552 3.06.394.394 0 01-.386.362zm1.37-6.13a.307.307 0 01-.118 0 .394.394 0 01-.26-.495c.308-.991.67-1.998 1.072-2.99a.394.394 0 01.724.3c-.386.967-.74 1.95-1.047 2.926a.378.378 0 01-.37.26zm2.364-5.822a.363.363 0 01-.229-.007.394.394 0 01-.181-.528c.465-.936.977-1.872 1.52-2.785a.386.386 0 01.536-.142c.187.113.25.354.142.543-.536.89-1.032 1.81-1.49 2.738a.402.402 0 01-.322.174l.024.007zm3.205-5.413a.41.41 0 01-.283-.102.386.386 0 01-.095-.543 42.74 42.74 0 011.906-2.542.394.394 0 01.615.496 36.813 36.813 0 00-1.875 2.494.402.402 0 01-.291.197h.023zm3.939-4.878a.386.386 0 01-.284-.661 33.592 33.592 0 012.276-2.219.386.386 0 01.552 0 .393.393 0 010 .559 32.391 32.391 0 00-2.23 2.18.402.402 0 01-.314.14zM27.836 135.77a.386.386 0 01-.307-.15.401.401 0 01.07-.558c.426-.315.851-.63 1.284-.937a.394.394 0 11.45.646c-.426.299-.843.605-1.253.92a.394.394 0 01-.244.079zM204.475 88.757a.355.355 0 01-.267-.11.385.385 0 010-.55s.386-.41 1.055-1.15a.394.394 0 11.583.52c-.677.787-1.071 1.172-1.071 1.172a.386.386 0 01-.3.118zM207.626 85.209a.41.41 0 01-.26-.095.385.385 0 010-.55c.607-.724 1.284-1.574 2.009-2.448a.394.394 0 01.7.2.385.385 0 01-.086.288 97.323 97.323 0 01-2.024 2.463.386.386 0 01-.339.142zm3.938-4.957a.45.45 0 01-.236-.079.401.401 0 01-.07-.559 93.958 93.958 0 001.874-2.541.396.396 0 01.646.456c-.646.897-1.276 1.755-1.899 2.565a.386.386 0 01-.283.173l-.032-.015zm3.702-5.17a.386.386 0 01-.323-.613 91.041 91.041 0 001.725-2.652.402.402 0 01.544-.126c.182.118.235.36.118.543a94.643 94.643 0 01-1.733 2.675.394.394 0 01-.3.173h-.03zm3.371-5.382a.355.355 0 01-.196-.055.386.386 0 01-.142-.535 65.203 65.203 0 001.512-2.77.395.395 0 01.701.363 66.95 66.95 0 01-1.536 2.8.394.394 0 01-.307.197h-.032zm2.923-5.641a.41.41 0 01-.166 0 .386.386 0 01-.189-.52c.45-.983.867-1.959 1.229-2.903a.394.394 0 01.512-.228c.202.08.304.307.228.511-.378.96-.787 1.952-1.252 2.943a.41.41 0 01-.33.197h-.032zm2.292-5.917h-.118a.401.401 0 01-.26-.496 34.59 34.59 0 00.787-3.037.394.394 0 01.772.165 63.31 63.31 0 01-.787 3.148.402.402 0 01-.363.22h-.031zm1.323-6.2h-.04a.394.394 0 01-.354-.425c0-.33.063-.653.079-.984 0-.731.07-1.455.094-2.155a.385.385 0 01.402-.386.401.401 0 01.386.401c0 .716-.055 1.44-.094 2.188 0 .338-.048.668-.08 1.007a.402.402 0 01-.393.354zm.181-6.342a.394.394 0 01-.394-.385c0-1.07-.078-2.125-.157-3.148a.385.385 0 01.362-.417.394.394 0 01.425.362c.08 1.03.134 2.101.158 3.187 0 .215-.17.393-.386.401h-.008zm-.512-6.294a.402.402 0 01-.394-.339 36.894 36.894 0 00-.575-3.084.403.403 0 11.788-.173c.228 1.007.425 2.07.583 3.147a.401.401 0 01-.33.449h-.072zm-1.425-6.17a.394.394 0 01-.379-.267 28.307 28.307 0 00-1.126-2.91.394.394 0 11.717-.331c.441.977.828 1.977 1.158 2.997a.393.393 0 01-.244.496.37.37 0 01-.126-.008v.024zm-2.631-5.75a.402.402 0 01-.339-.182 21.968 21.968 0 00-1.812-2.533.393.393 0 01.056-.551.386.386 0 01.55.047 23.22 23.22 0 011.876 2.597.385.385 0 01-.331.598v.023zm-4.049-4.856a.426.426 0 01-.26-.094 20.532 20.532 0 00-2.473-1.888.393.393 0 11.425-.661 21.556 21.556 0 012.576 1.959.401.401 0 010 .559.402.402 0 01-.268.102v.023zm-5.3-3.438a.426.426 0 01-.166 0c-.949-.431-1.925-.8-2.922-1.101a.41.41 0 11.228-.787c1.033.309 2.043.687 3.025 1.133a.386.386 0 01.189.519.386.386 0 01-.355.212v.024zm-6.066-1.849h-.07a26.681 26.681 0 00-3.112-.354.394.394 0 01-.37-.417.37.37 0 01.417-.37c1.072.06 2.14.181 3.198.362.214.04.357.242.323.456a.386.386 0 01-.386.3v.023zM197.442 17.015a.395.395 0 01-.063-.787 14.303 14.303 0 011.575-.157.394.394 0 11.047.786c-.953.056-1.52.142-1.52.142l-.04.016z" fill="#D1D3D4"/>
    <path d="M2.333 48.385l22.852-18.658a2.578 2.578 0 013.626.365l9.231 11.282a2.578 2.578 0 01-.365 3.63L14.825 63.662a2.578 2.578 0 01-3.626-.365L1.968 52.015a2.578 2.578 0 01.365-3.63z" fill="#FFF"/>
    <path d="M13.122 64.87h-.244a2.364 2.364 0 01-1.575-.866L1.3 51.808a2.359 2.359 0 01.338-3.36l23.748-19.395a2.365 2.365 0 013.363.339l9.972 12.187a2.359 2.359 0 01-.339 3.36L14.635 64.326c-.425.352-.96.544-1.513.543zm13.776-35.565a1.647 1.647 0 00-1.016.354L2.135 49.054c-.324.27-.525.659-.56 1.078-.04.425.088.848.355 1.18l9.971 12.18c.267.332.656.542 1.08.583.422.04.843-.088 1.173-.354l23.732-19.396a1.573 1.573 0 00.229-2.25l-9.972-12.164a1.576 1.576 0 00-1.245-.606z" fill="#D1D3D4"/>
    <path d="M1.181 50.368a.394.394 0 01-.393-.393.385.385 0 01.354-.425l19.794-1.715L26.56 28.8a.386.386 0 01.488-.267.393.393 0 01.26.488l-5.687 19.293a.386.386 0 01-.339.283l-20.061 1.77h-.04z" fill="#D1D3D4"/>
    <path d="M22.054 45.773a.394.394 0 110-.787L38.8 43.074a.402.402 0 01.433.347.393.393 0 01-.346.44l-16.762 1.912h-.07zM13.099 64.87a.315.315 0 01-.118 0 .386.386 0 01-.252-.496l5.206-16.012a.412.412 0 01.788.244l-5.207 16.012a.402.402 0 01-.417.251z" fill="#D1D3D4"/>
    <path d="M217.625 104.805l21.774 9.431a2.068 2.068 0 011.078 2.721l-.002.001-4.668 10.755a2.075 2.075 0 01-2.724 1.076l-21.775-9.43a2.068 2.068 0 01-1.075-2.723l4.667-10.754a2.075 2.075 0 012.725-1.077z" fill="#FFF"/>
    <path d="M234.162 129.491a2.034 2.034 0 01-.788-.165l-22.621-9.804c-.49-.206-.876-.6-1.071-1.094-.201-.491-.201-1.042 0-1.534l5.033-11.606a2.01 2.01 0 012.63-1.038l22.63 9.796a2 2 0 011.063 1.101 1.973 1.973 0 010 1.527l-5.04 11.59a1.984 1.984 0 01-1.095 1.062 2.026 2.026 0 01-.74.165zm-17.557-24.62c-.483.002-.919.29-1.11.732l-5.073 11.645c-.258.608.024 1.31.63 1.574l22.63 9.804c.298.121.631.121.93 0 .298-.117.537-.35.66-.646l5.042-11.613a1.203 1.203 0 000-.92 1.173 1.173 0 00-.646-.67l-22.614-9.803a1.12 1.12 0 00-.449-.103z" fill="#D1D3D4"/>
    <path d="M224.742 118.617a.378.378 0 01-.331-.18l-8.664-13.676a.394.394 0 11.67-.417l8.49 13.447 15.635-2.998a.386.386 0 01.465.307.401.401 0 01-.315.464l-15.895 3.053h-.055z" fill="#D1D3D4"/>
    <path d="M234.619 129.42a.402.402 0 01-.33-.173l-7.547-11.212a.393.393 0 01.406-.603c.102.02.192.082.248.17l7.546 11.244c.12.183.07.428-.11.55a.418.418 0 01-.213.024zM210.107 118.822a.394.394 0 01-.394-.33.393.393 0 01.331-.45l13.39-2.187a.4.4 0 01.126.787l-13.39 2.188-.063-.008z" fill="#D1D3D4"/>
    <path d="M65.276 12.726l16.47 5.454a1.51 1.51 0 01.96 1.91l-2.7 8.139a1.515 1.515 0 01-1.912.96l-16.47-5.454a1.51 1.51 0 01-.96-1.911l2.7-8.138a1.515 1.515 0 011.912-.96z" fill="#FFF"/>
    <path d="M78.766 29.738c-.166 0-.331-.027-.489-.079l-17.116-5.665a1.575 1.575 0 01-.992-1.983l2.914-8.78a1.576 1.576 0 011.977-1l17.116 5.665a1.573 1.573 0 01.993 1.983l-2.907 8.78a1.575 1.575 0 01-1.496 1.079zm-.245-.826a.788.788 0 00.599 0 .787.787 0 00.394-.457l2.922-8.773a.786.786 0 000-.598.787.787 0 00-.449-.393l-17.116-5.665a.788.788 0 00-.598.047.787.787 0 00-.386.448l-2.915 8.781a.825.825 0 000 .598c.096.184.26.322.457.386l17.092 5.626z" fill="#D1D3D4"/>
    <path d="M71.322 22.436a.402.402 0 01-.315-.157L63.8 12.884a.393.393 0 01.622-.48l7.018 9.182 11.122-3.147a.394.394 0 01.488.275.393.393 0 01-.275.48L71.4 22.452l-.079-.016z" fill="#D1D3D4"/>
    <path d="M79.215 29.66a.378.378 0 01-.308-.15l-6.222-7.696a.394.394 0 11.614-.495l6.223 7.703a.393.393 0 01-.307.637zM60.65 23.522a.397.397 0 01-.095-.787l9.594-2.455a.394.394 0 01.48.283.385.385 0 01-.283.473l-9.594 2.462-.103.024z" fill="#D1D3D4"/>
  </g>
  <path d="M 147.375 430.725 L 147.375 430.988 C 147.375 436.013 143.085 440.087 137.794 440.086 L 29.646 440.086 C 24.356 440.086 20.068 436.012 20.068 430.988 L 20.068 430.725 L 147.375 430.725 Z" fill="#f2f2f2" style=""/>
  <path d="M 42.687 387.414 C 34.871 389.247 27.856 383.536 26.631 378.237 L 27.175 378.145 C 33.762 376.762 41.115 381.234 42.687 387.414 Z" fill="#6c63ff" style=""/>
  <path d="M 231.6 485.538 C 229.339 484.61 228.826 481.233 230.718 479.736 C 232.61 478.24 236.014 479.331 236.565 481.61 L 234.456 467.283 C 233.971 463.989 233.584 460.307 235.679 457.643 C 237.642 455.148 241.475 454.348 244.553 455.422 C 247.631 456.496 249.905 459.176 250.87 462.152 C 251.835 465.129 251.608 468.363 250.765 471.373 C 249.922 474.383 248.491 477.21 247.043 480.004 C 245.559 482.867 243.76 485.97 240.588 487.024 C 237.559 488.031 231.6 485.538 231.6 485.538 Z" fill="#f2f2f2" style=""/>
  <path d="M 241.505 455.151 C 242.891 459.258 243.55 463.556 243.457 467.868 C 243.37 472.161 242.558 476.413 241.053 480.462 C 240.195 482.759 239.109 484.973 237.809 487.074 C 237.642 487.368 237.873 487.723 238.224 487.713 C 238.376 487.709 238.516 487.634 238.597 487.512 C 240.931 483.723 242.59 479.593 243.505 475.291 C 244.435 470.968 244.621 466.53 244.056 462.15 C 243.739 459.696 243.179 457.275 242.385 454.92 C 242.205 454.392 241.325 454.618 241.505 455.151 Z" fill="#fff" style=""/>
  <path d="M 230.26 480.264 L 237.477 487.468 C 237.883 487.873 238.527 487.26 238.122 486.856 L 230.904 479.651 C 230.499 479.246 229.855 479.86 230.26 480.264 Z" fill="#fff" style=""/>
  <path d="M 224.128 453.061 C 223.871 453.061 223.623 452.973 223.428 452.814 C 218.971 450.057 215.004 446.645 211.676 442.705 C 211.252 442.323 211.227 441.69 211.619 441.279 L 213.807 438.984 L 214.258 439.372 L 212.07 441.667 C 211.897 441.848 211.911 442.129 212.102 442.293 L 212.134 442.325 C 215.43 446.23 219.36 449.611 223.776 452.34 L 223.816 452.368 C 224.007 452.533 224.302 452.519 224.475 452.337 L 228.744 447.86 C 228.909 447.687 228.905 447.422 228.734 447.255 C 227.745 446.743 226.78 446.184 225.865 445.595 L 226.206 445.117 C 227.116 445.703 228.076 446.258 229.061 446.766 L 229.119 446.805 C 229.56 447.184 229.593 447.829 229.195 448.247 L 224.926 452.725 C 224.735 452.926 224.467 453.047 224.183 453.059 C 224.164 453.06 224.146 453.061 224.128 453.061 Z" fill="#3f3d56" style=""/>
  <path d="M 219.422 445.523 C 220.763 446.675 222.14 447.307 222.499 446.932 C 222.594 446.802 222.614 446.637 222.553 446.49 C 222.408 446.065 222.176 445.671 221.869 445.332 C 220.678 444.526 219.52 443.657 218.395 442.725 C 218.042 442.615 217.772 442.618 217.641 442.757 C 217.622 442.776 217.607 442.799 217.596 442.823 C 217.371 443.259 218.152 444.428 219.422 445.523 Z" fill="#6c63ff" style=""/>
  <path d="M 211.343 436.24 C 211.354 436.502 211.474 436.75 211.677 436.93 C 213.478 439.044 215.457 441.015 217.596 442.823 C 219.16 444.149 220.817 445.374 222.553 446.49 C 222.842 446.678 223.134 446.86 223.429 447.039 C 223.622 447.199 223.871 447.288 224.128 447.287 C 224.146 447.287 224.165 447.284 224.183 447.284 C 224.468 447.271 224.736 447.151 224.927 446.949 L 229.195 442.474 C 229.594 442.055 229.56 441.409 229.119 441.03 L 229.062 440.989 C 224.402 438.599 220.419 435.174 217.453 431.008 L 217.407 430.956 C 216.966 430.577 216.286 430.609 215.887 431.028 L 211.619 435.503 C 211.427 435.704 211.328 435.969 211.343 436.24 Z M 211.951 436.211 C 211.944 436.094 211.987 435.98 212.069 435.893 L 216.337 431.415 C 216.421 431.327 216.538 431.275 216.662 431.27 C 216.774 431.264 216.884 431.297 216.972 431.363 C 219.983 435.581 224.017 439.051 228.733 441.48 C 228.904 441.647 228.909 441.911 228.746 442.084 L 224.475 446.562 C 224.393 446.65 224.276 446.702 224.152 446.707 C 224.029 446.712 223.908 446.672 223.815 446.594 L 223.775 446.565 C 223.131 446.172 222.496 445.761 221.869 445.332 C 220.678 444.526 219.52 443.657 218.395 442.725 C 216.124 440.843 214.028 438.777 212.133 436.551 L 212.102 436.52 C 212.011 436.439 211.957 436.329 211.951 436.211 Z" fill="#3f3d56" style=""/>
  <ellipse cx="872.151" cy="491.049" rx="0.937" ry="3.199" transform="matrix(0.69001, -0.723799, 0.75913, 0.65295, -754.493557, 749.702209)" fill="#6c63ff" style=""/>
  <polygon points="195.679 484.101 191.953 484.101 190.18 470.447 195.68 470.447 195.679 484.101" fill="#ffb8b8" style=""/>
  <path d="M 196.63 487.533 L 184.613 487.532 L 184.613 487.388 C 184.613 484.934 186.707 482.945 189.291 482.945 L 196.63 482.945 L 196.63 487.533 Z" fill="#2f2e41" style=""/>
  <polygon points="206.623 484.101 202.896 484.101 201.123 470.447 206.623 470.447 206.623 484.101" fill="#ffb8b8" style=""/>
  <path d="M 207.573 487.533 L 195.557 487.532 L 195.557 487.388 C 195.557 484.934 197.651 482.945 200.234 482.945 L 207.574 482.945 L 207.573 487.533 Z" fill="#2f2e41" style=""/>
  <path d="M 209.124 428.92 L 208.234 479.073 C 208.222 479.744 207.612 480.265 206.908 480.204 L 202.547 479.827 C 201.957 479.776 201.491 479.328 201.445 478.766 L 198.892 447.482 C 198.874 447.261 198.61 447.141 198.417 447.266 C 198.338 447.318 198.289 447.402 198.285 447.494 L 197.009 479.494 C 196.984 480.114 196.448 480.605 195.794 480.605 L 191.117 480.605 C 190.474 480.605 189.943 480.13 189.903 479.521 L 186.629 428.631 L 206.084 424.012 L 209.124 428.92 Z" fill="#2f2e41" style=""/>
  <circle cx="576.71077" cy="27.78466" r="24.56103" fill="#ffb8b8" transform="matrix(0.303983, 0, 0, 0.288743, 19.7029, 366.713135)" style=""/>
  <path d="M 185.963 430.412 C 185.702 430.172 185.552 429.843 185.548 429.498 L 185.045 395.299 C 184.983 391.73 187.35 388.529 190.906 387.375 C 191.606 384.361 195.328 383.983 197.499 384.029 C 198.598 384.051 199.617 384.582 200.228 385.45 L 201.783 387.667 L 205.212 389.576 C 208.469 391.381 210.124 394.978 209.307 398.474 L 208.779 400.755 C 206.92 408.828 207.097 417.204 209.295 425.2 L 210.358 429.047 C 210.596 429.911 209.867 430.741 208.93 430.672 L 207.696 430.582 C 207.035 430.534 206.505 430.043 206.44 429.416 L 206.235 427.476 C 206.224 427.366 206.09 427.309 205.995 427.374 C 205.96 427.398 205.937 427.435 205.933 427.476 L 205.735 429.354 C 205.666 430.011 205.09 430.514 204.395 430.524 L 186.937 430.779 C 186.93 430.779 186.923 430.78 186.915 430.78 C 186.56 430.78 186.218 430.648 185.963 430.412 Z" fill="#3f3d56" style=""/>
  <path d="M 195.597 378.823 C 195.627 379.826 196.36 380.406 197.26 380.931 C 198.159 381.456 199.211 381.684 200.241 381.903 C 200.846 382.208 201.575 381.795 201.58 381.145 L 202.525 377.732 C 202.859 376.641 203.103 375.527 203.253 374.4 C 203.48 372.232 202.939 369.9 201.346 368.332 C 199.753 366.764 196.99 366.207 195.08 367.415 C 192.815 364.667 182.458 370.74 185.013 372.651 C 185.467 372.991 186.162 372.561 186.739 372.519 C 187.316 372.477 187.962 372.574 188.329 372.999 C 188.807 373.555 188.599 374.382 188.796 375.075 C 189.14 376.101 190.298 376.665 191.375 376.331 C 191.852 376.108 192.301 375.834 192.713 375.514 C 193.155 375.234 193.714 375.027 194.212 375.204 C 194.869 375.437 195.102 376.2 195.162 376.863 C 195.262 377.525 195.407 378.18 195.597 378.823 Z" fill="#2f2e41" style=""/>
  <polygon points="193.853 397.83 192.637 411.978 186.254 426.704 195.677 412.267 193.853 397.83" opacity="0.2" style=""/>
  <path d="M 184.761 432.188 C 186.245 431.056 186.291 428.926 184.857 427.737 L 188.924 418.169 L 183.391 419.23 L 180.377 428.153 C 178.943 429.94 180.083 432.532 182.429 432.819 C 183.265 432.921 184.107 432.693 184.761 432.188 Z" fill="#ffb8b8" style=""/>
  <path d="M 184.465 427.968 L 181.333 426.896 C 180.664 426.664 180.293 425.985 180.477 425.331 L 185.644 407.366 L 186.432 391.129 C 186.569 388.283 189.899 386.646 192.426 388.182 C 193.632 388.916 194.317 390.22 194.21 391.577 L 192.803 409.356 L 186.219 427.177 C 186.014 427.73 185.444 428.085 184.828 428.043 C 184.704 428.034 184.582 428.009 184.465 427.968 Z" fill="#3f3d56" style=""/>
  <path d="M 216.743 433.127 C 217.654 431.539 216.832 429.556 215.027 428.984 L 214.899 418.666 L 210.223 421.671 L 211.062 431.008 C 210.463 433.182 212.566 435.156 214.847 434.562 C 215.66 434.351 216.345 433.832 216.743 433.127 Z" fill="#ffb8b8" style=""/>
  <path d="M 214.758 429.341 L 211.433 429.498 C 210.722 429.528 210.104 429.037 210.009 428.367 L 207.49 409.898 L 201.631 394.626 C 200.604 391.949 203.013 389.22 205.967 389.713 C 207.378 389.949 208.539 390.901 208.99 392.193 L 214.903 409.114 L 216.056 427.968 C 216.092 428.554 215.71 429.09 215.124 429.277 C 215.006 429.314 214.883 429.335 214.758 429.341 Z" fill="#3f3d56" style=""/>
  <path d="M 254.675 487.679 L 138.858 487.679 C 138.624 487.679 138.477 487.439 138.594 487.246 C 138.649 487.157 138.749 487.102 138.858 487.102 L 254.675 487.102 C 254.909 487.102 255.055 487.342 254.938 487.535 C 254.884 487.624 254.784 487.679 254.675 487.679 Z" fill="#3f3d56" style=""/>
  <path d="M 117.956 425.34 C 116.21 425.34 114.821 424.847 113.828 423.874 C 111.585 421.675 111.725 417.437 111.838 414.031 C 111.871 413.041 111.902 412.105 111.871 411.321 L 111.87 411.309 C 111.887 408.121 114.602 405.541 117.958 405.523 L 132.432 405.523 C 134.176 405.523 135.563 406.016 136.555 406.987 C 138.799 409.184 138.66 413.422 138.548 416.826 C 138.516 417.819 138.485 418.757 138.517 419.542 C 138.505 422.735 135.787 425.322 132.426 425.34 L 117.956 425.34 Z M 112.478 411.305 C 112.51 412.108 112.479 413.051 112.446 414.05 C 112.336 417.346 112.2 421.449 114.265 423.472 C 115.151 424.34 116.358 424.762 117.955 424.762 L 132.426 424.762 C 135.448 424.747 137.894 422.424 137.909 419.553 C 137.877 418.759 137.908 417.812 137.941 416.808 C 138.049 413.513 138.183 409.411 136.119 407.39 C 135.233 406.522 134.027 406.101 132.433 406.101 L 117.959 406.101 C 114.94 406.117 112.496 408.437 112.478 411.305 Z" fill="#3f3d56" style=""/>
  <path d="M 39.489 387.945 C 36.951 387.93 34.468 387.24 32.323 385.951 C 29.18 384.096 26.807 381.125 26.13 378.198 L 26.062 377.905 L 26.911 377.761 C 33.597 376.359 41.159 380.875 42.779 387.242 L 42.85 387.521 L 42.556 387.59 C 41.553 387.826 40.523 387.945 39.489 387.945 Z M 26.797 378.367 C 27.527 381.052 29.741 383.747 32.644 385.461 C 35.451 387.167 38.852 387.754 42.112 387.096 C 40.417 381.165 33.32 377.002 27.037 378.326 L 26.797 378.367 Z" fill="#3f3d56" style=""/>
  <path d="M 31.056 420.758 C 29.067 420.758 27.451 419.913 26.503 418.371 C 25.421 416.546 25.42 414.318 26.501 412.493 C 27.464 410.924 29.119 410.073 31.162 410.103 L 50.448 410.103 C 52.484 410.078 54.139 410.925 55.104 412.496 C 56.184 414.321 56.184 416.548 55.103 418.373 C 54.139 419.94 52.484 420.776 50.443 420.758 L 31.157 420.758 C 31.123 420.758 31.089 420.758 31.056 420.758 Z M 31.067 410.68 C 29.293 410.68 27.861 411.425 27.026 412.784 C 26.053 414.428 26.053 416.436 27.028 418.079 C 27.877 419.46 29.339 420.207 31.152 420.18 L 50.448 420.18 C 52.263 420.208 53.73 419.461 54.578 418.082 C 55.552 416.438 55.552 414.431 54.579 412.787 C 53.73 411.404 52.263 410.66 50.452 410.68 L 31.155 410.68 C 31.126 410.68 31.096 410.68 31.067 410.68 Z" fill="#3f3d56" style=""/>
  <path d="M 122.905 412.39 L 116.825 412.39 C 115.655 412.39 114.924 411.187 115.509 410.224 C 115.78 409.778 116.282 409.502 116.825 409.502 L 122.905 409.502 C 124.075 409.502 124.806 410.705 124.221 411.668 C 123.95 412.115 123.448 412.39 122.905 412.39 Z" fill="#6c63ff" style=""/>
  <path d="M 122.905 417.01 L 116.825 417.01 C 115.655 417.01 114.924 415.807 115.509 414.844 C 115.78 414.397 116.282 414.122 116.825 414.122 L 122.905 414.122 C 124.075 414.122 124.806 415.325 124.221 416.288 C 123.95 416.735 123.448 417.01 122.905 417.01 Z" fill="#6c63ff" style=""/>
  <path d="M 122.905 421.63 L 116.825 421.63 C 115.655 421.63 114.924 420.426 115.509 419.464 C 115.78 419.017 116.282 418.742 116.825 418.742 L 122.905 418.742 C 124.075 418.742 124.806 419.945 124.221 420.908 C 123.95 421.354 123.448 421.63 122.905 421.63 Z" fill="#6c63ff" style=""/>
  <path d="M 133.544 412.39 L 127.465 412.39 C 126.295 412.39 125.563 411.187 126.148 410.224 C 126.42 409.778 126.922 409.502 127.465 409.502 L 133.544 409.502 C 134.714 409.502 135.446 410.705 134.86 411.668 C 134.589 412.115 134.087 412.39 133.544 412.39 Z" fill="#6c63ff" style=""/>
  <path d="M 133.544 417.01 L 127.465 417.01 C 126.295 417.01 125.563 415.807 126.148 414.844 C 126.42 414.397 126.922 414.122 127.465 414.122 L 133.544 414.122 C 134.714 414.122 135.446 415.325 134.86 416.288 C 134.589 416.735 134.087 417.01 133.544 417.01 Z" fill="#6c63ff" style=""/>
  <path d="M 133.544 421.63 L 127.465 421.63 C 126.295 421.63 125.563 420.426 126.148 419.464 C 126.42 419.017 126.922 418.742 127.465 418.742 L 133.544 418.742 C 134.714 418.742 135.446 419.945 134.86 420.908 C 134.589 421.354 134.087 421.63 133.544 421.63 Z" fill="#6c63ff" style=""/>
  <rect x="20.068" y="391.872" width="127.308" height="0.577" fill="#3f3d56" style=""/>
  <path d="M 137.344 440.254 L 29.734 440.254 C 24.197 440.248 19.709 435.985 19.703 430.725 L 19.703 381.061 C 19.709 375.801 24.197 371.539 29.734 371.533 L 137.344 371.533 C 142.882 371.539 147.369 375.801 147.375 381.061 L 147.375 430.725 C 147.369 435.985 142.882 440.248 137.344 440.254 Z M 29.734 372.11 C 24.532 372.116 20.317 376.12 20.311 381.061 L 20.311 430.725 C 20.317 435.666 24.532 439.67 29.734 439.676 L 137.344 439.676 C 142.546 439.67 146.762 435.666 146.767 430.725 L 146.767 381.061 C 146.762 376.12 142.546 372.116 137.344 372.11 L 29.734 372.11 Z" fill="#3f3d56" style=""/>
  <path d="M 436.464 359.909 C 437.1 359.95 437.452 359.127 436.97 358.646 L 436.922 358.448 C 436.929 358.432 436.935 358.416 436.942 358.4 C 437.585 356.801 439.768 356.812 440.406 358.414 C 440.973 359.835 441.694 361.259 441.872 362.761 C 441.951 363.425 441.915 364.101 441.774 364.752 C 443.102 361.731 443.8 358.433 443.8 355.116 C 443.8 354.283 443.757 353.449 443.667 352.618 C 443.593 351.938 443.492 351.262 443.36 350.593 C 442.65 346.973 441.111 343.526 438.892 340.646 C 437.825 340.039 436.935 339.089 436.398 337.951 C 436.205 337.541 436.053 337.099 435.982 336.649 C 436.103 336.666 436.439 334.74 436.348 334.622 C 436.517 334.354 436.82 334.221 437.005 333.961 C 437.924 332.663 439.19 332.889 439.851 334.653 C 441.263 335.395 441.277 336.626 440.411 337.81 C 439.859 338.563 439.784 339.583 439.3 340.389 C 439.35 340.455 439.401 340.52 439.451 340.586 C 440.364 341.805 441.153 343.115 441.818 344.492 C 441.63 342.962 441.908 341.119 442.381 339.931 C 442.92 338.577 443.93 337.437 444.819 336.267 C 445.887 334.862 448.078 335.475 448.266 337.257 C 448.268 337.274 448.269 337.291 448.271 337.308 C 448.139 337.386 448.01 337.469 447.883 337.556 C 447.162 338.052 447.411 339.216 448.266 339.354 L 448.285 339.357 C 448.237 339.852 448.156 340.343 448.036 340.826 C 449.177 345.421 446.714 347.095 443.197 347.17 C 443.12 347.211 443.044 347.253 442.966 347.292 C 443.323 348.337 443.607 349.409 443.818 350.495 C 444.007 351.455 444.139 352.425 444.212 353.4 C 444.304 354.629 444.296 355.864 444.197 357.092 L 444.202 357.048 C 444.455 355.696 445.16 354.434 446.183 353.559 C 447.707 352.255 449.861 351.775 451.505 350.727 C 452.296 350.222 453.311 350.874 453.172 351.83 L 453.166 351.876 C 452.921 351.979 452.682 352.1 452.451 352.234 C 452.319 352.312 452.19 352.395 452.063 352.482 C 451.342 352.978 451.591 354.142 452.446 354.28 L 452.465 354.283 C 452.479 354.285 452.491 354.287 452.505 354.289 C 452.085 355.327 451.5 356.291 450.767 357.123 C 450.054 361.134 446.99 361.514 443.713 360.346 L 443.711 360.346 C 443.353 361.972 442.829 363.56 442.156 365.073 L 436.603 365.073 C 436.583 365.009 436.565 364.942 436.547 364.878 C 437.061 364.911 437.578 364.88 438.084 364.783 C 437.672 364.256 437.26 363.725 436.848 363.199 C 436.838 363.188 436.83 363.178 436.822 363.168 C 436.613 362.898 436.402 362.631 436.193 362.361 C 436.179 361.534 436.275 360.709 436.463 359.909 L 436.464 359.909 Z" fill="#f2f2f2" style=""/>
  <path d="M 334.285 364.769 C 334.285 364.981 334.448 365.151 334.652 365.151 L 452.775 365.151 C 452.979 365.151 453.142 364.981 453.142 364.769 C 453.142 364.557 452.979 364.387 452.775 364.387 L 334.652 364.387 C 334.448 364.387 334.285 364.557 334.285 364.769 Z" fill="#ccc" style=""/>
  <g transform="matrix(0.308183, 0, 0, 0.320962, 285.051849, 197.126907)" style="">
    <path d="M217.91365,522.99361H41.48886c-21.51191,0-39.01333-17.50142-39.01333-39.01374V104.83075c0-21.51191,17.50142-39.01333,39.01333-39.01333H217.91365c21.51151,0,39.01293,17.50142,39.01293,39.01333V483.97987c0,21.51232-17.50142,39.01374-39.01293,39.01374Z" fill="#3f3d56"/>
    <path d="M256.92674,205.28092c-.91025,0-1.65045,.74021-1.65045,1.65045v52.81453c0,.91025,.74021,1.65045,1.65045,1.65045s1.65045-.74021,1.65045-1.65045v-52.81453c0-.91025-.74021-1.65045-1.65045-1.65045Z" fill="#3f3d56"/>
    <path d="M253.21342,104.83104V483.97336c0,18.7244-14.57349,34.04062-33.00082,35.22894h-.00826c-.27234,.01652-.54463,.03304-.82523,.0413-.48691,.02473-.97376,.03299-1.46888,.03299,0,0-1.81551-.13206-5.13294-.37962-3.35042-.24756-8.22749-.61892-14.30946-1.10578-1.82372-.14032-3.74651-.29712-5.77659-.46213-4.04358-.33011-8.48331-.69321-13.24488-1.10583-1.89801-.1568-3.86206-.33006-5.86735-.50338-10.24931-.883-21.72824-1.91453-33.83431-3.08634-2.04655-.18984-4.10961-.38788-6.1892-.59419-.54463-.05777-1.09757-.10728-1.65045-.16506-8.63189-.84996-125.71564-23.47767-125.71564-27.90092V104.83104c0-19.50007,15.80312-35.30319,35.30324-35.30319h21.07628c3.36694,0,6.07366,2.62422,6.36252,5.9829,.02473,.22283,.04951,.4456,.09076,.66843,.61066,3.3752,3.70526,5.72708,7.13818,5.72708h107.08205c3.43292,0,6.52752-2.35188,7.13818-5.72708,.04125-.22283,.06603-.4456,.09081-.66843,.28881-3.35868,2.99553-5.9829,6.36247-5.9829h21.07633c19.50007,0,35.30319,15.80312,35.30319,35.30319Z" fill="#fff"/>
    <path d="M1.65045,165.67002c-.91025,0-1.65045,.74021-1.65045,1.65045v13.20363c0,.91025,.74021,1.65045,1.65045,1.65045s1.65045-.74021,1.65045-1.65045v-13.20363c0-.91025-.74021-1.65045-1.65045-1.65045Z" fill="#3f3d56"/>
    <path d="M1.65045,205.28092c-.91025,0-1.65045,.74021-1.65045,1.65045v25.58204c0,.91025,.74021,1.65045,1.65045,1.65045s1.65045-.74021,1.65045-1.65045v-25.58204c0-.91025-.74021-1.65045-1.65045-1.65045Z" fill="#3f3d56"/>
    <path d="M1.65045,241.59091c-.91025,0-1.65045,.74021-1.65045,1.65045v25.58204c0,.91025,.74021,1.65045,1.65045,1.65045s1.65045-.74021,1.65045-1.65045v-25.58204c0-.91025-.74021-1.65045-1.65045-1.65045Z" fill="#3f3d56"/>
    <rect x="30.12079" y="75.30766" width="32.18385" height="4.12614" rx=".31021" ry=".31021" fill="#e6e6e6"/>
    <circle cx="202.04914" cy="76.13289" r="3.30091" fill="#e6e6e6"/>
    <circle cx="211.12664" cy="76.13289" r="3.30091" fill="#e6e6e6"/>
    <circle cx="220.20414" cy="76.13289" r="3.30091" fill="#e6e6e6"/>
  </g>
  <path d="M 346.469 292.939 L 303.324 292.939 C 302.644 292.939 302.091 292.363 302.091 291.656 C 302.091 290.948 302.644 290.372 303.324 290.372 L 346.469 290.372 C 347.149 290.372 347.702 290.948 347.702 291.656 C 347.702 292.363 347.149 292.939 346.469 292.939 Z" fill="#e6e6e6" style=""/>
  <circle cx="129.79071" cy="395.51575" r="58" fill="#6c63ff" transform="matrix(0.308183, 0, 0, 0.320962, 285.051849, 197.126907)" style=""/>
  <path d="M 327.892 317.994 C 326.384 318.059 324.678 318.167 323.563 319.372 C 322.594 320.42 322.382 321.974 323.365 323.092 C 324.349 324.213 325.881 324.365 327.016 325.239 C 328.349 326.266 328.154 328.298 326.864 329.271 C 325.343 330.419 323.378 329.884 321.988 328.792 C 321.631 328.512 321.285 329.139 321.638 329.415 C 322.884 330.394 324.51 330.938 326.05 330.47 C 327.441 330.048 328.518 328.867 328.628 327.331 C 328.68 326.598 328.48 325.854 328.043 325.276 C 327.581 324.665 326.915 324.289 326.243 323.983 C 325.085 323.457 323.091 322.775 323.427 321.061 C 323.836 318.983 326.264 318.786 327.892 318.717 C 328.337 318.698 328.339 317.975 327.892 317.994 Z" fill="#fff" style=""/>
  <path d="M 325.094 317.012 L 325.027 332.865 C 325.025 333.33 325.719 333.33 325.72 332.865 L 325.787 317.012 C 325.789 316.547 325.096 316.546 325.094 317.012 Z" fill="#fff" style=""/>
  <path d="M 419.754 197.127 L 331.626 197.127 C 328.393 197.127 325.765 199.865 325.765 203.232 L 325.765 266.128 C 325.765 269.494 328.393 272.232 331.626 272.232 L 419.754 272.232 C 422.987 272.232 425.616 269.494 425.616 266.128 L 425.616 203.232 C 425.616 199.865 422.987 197.127 419.754 197.127 Z" fill="#fff" style=""/>
  <circle cx="292.79071" cy="84.51575" r="32" fill="#6c63ff" transform="matrix(0.308183, 0, 0, 0.320962, 285.051849, 197.126907)" style=""/>
  <path d="M 377.156 219.67 C 375.935 219.723 374.561 219.803 373.637 220.749 C 372.873 221.533 372.605 222.753 373.308 223.676 C 374.048 224.647 375.279 224.832 376.245 225.453 C 376.845 225.838 377.243 226.423 377.256 227.174 C 377.268 227.878 376.956 228.535 376.435 228.976 C 375.157 230.057 373.414 229.609 372.204 228.664 C 371.966 228.477 371.736 228.895 371.971 229.079 C 372.973 229.863 374.262 230.318 375.509 229.981 C 376.656 229.67 377.58 228.73 377.704 227.475 C 377.835 226.151 377.001 225.249 375.918 224.732 C 374.929 224.26 373.194 223.756 373.358 222.288 C 373.566 220.421 375.76 220.211 377.156 220.152 C 377.452 220.139 377.454 219.657 377.156 219.67 Z" fill="#fff" style=""/>
  <path d="M 375.034 218.797 L 374.979 232.007 C 374.978 232.317 375.44 232.318 375.441 232.007 L 375.497 218.797 C 375.498 218.487 375.036 218.487 375.034 218.797 Z" fill="#fff" style=""/>
  <path d="M 419.754 197.127 L 331.626 197.127 C 328.393 197.127 325.765 199.865 325.765 203.232 L 325.765 266.128 C 325.765 269.494 328.393 272.232 331.626 272.232 L 419.754 272.232 C 422.987 272.232 425.616 269.494 425.616 266.128 L 425.616 203.232 C 425.616 199.865 422.987 197.127 419.754 197.127 Z M 425 266.128 C 425 269.141 422.648 271.59 419.754 271.59 L 331.626 271.59 C 328.732 271.59 326.381 269.141 326.381 266.128 L 326.381 203.232 C 326.381 200.218 328.732 197.769 331.626 197.769 L 419.754 197.769 C 422.648 197.769 425 200.218 425 203.232 L 425 266.128 Z" fill="#3f3d56" style=""/>
  <g transform="matrix(0.308183, 0, 0, 0.320962, 285.051849, 197.126907)" style="">
    <path d="M261.1357,19.34998h-28.06006c-1.40997,0-2.56,1.15002-2.56,2.56,0,1.41998,1.15002,2.57001,2.56,2.57001h28.06006c1.40997,0,2.56-1.15002,2.56-2.57001,0-1.40997-1.15002-2.56-2.56-2.56Z" fill="#e6e6e6"/>
    <path d="M308.1357,19.34998h-28.06006c-1.40997,0-2.56,1.15002-2.56,2.56,0,1.41998,1.15002,2.57001,2.56,2.57001h28.06006c1.40997,0,2.56-1.15002,2.56-2.57001,0-1.40997-1.15002-2.56-2.56-2.56Z" fill="#e6e6e6"/>
    <path d="M355.1357,19.34998h-28.06006c-1.40997,0-2.56,1.15002-2.56,2.56,0,1.41998,1.15002,2.57001,2.56,2.57001h28.06006c1.40997,0,2.56-1.15002,2.56-2.57001,0-1.40997-1.15002-2.56-2.56-2.56Z" fill="#e6e6e6"/>
  </g>
  <path d="M 408.761 240.302 L 342.619 240.302 C 339.867 240.302 337.63 242.632 337.63 245.498 L 337.63 250.19 C 337.63 253.057 339.867 255.387 342.619 255.387 L 408.761 255.387 C 411.513 255.387 413.751 253.057 413.751 250.19 L 413.751 245.498 C 413.751 242.632 411.513 240.302 408.761 240.302 Z" fill="#6c63ff" style=""/>
  <path d="M 307.605 265.008 L 305.068 263.757 C 306.109 265.269 307.005 267.63 307.485 269.509 C 308.297 267.759 309.607 265.617 310.904 264.338 L 308.223 265.056 C 309.875 256.625 316.088 250.572 323.202 250.572 L 323.202 249.93 C 315.771 249.93 309.291 256.237 307.605 265.008 Z" fill="#3f3d56" style=""/>
  <path d="M 319.278 277.854 L 303.253 277.854 C 302.573 277.854 302.02 277.278 302.02 276.57 C 302.02 275.862 302.573 275.286 303.253 275.286 L 319.278 275.286 C 319.958 275.286 320.511 275.862 320.511 276.57 C 320.511 277.278 319.958 277.854 319.278 277.854 Z" fill="#e6e6e6" style=""/>
  <g transform="matrix(0.308183, 0, 0, 0.320962, 285.051849, 197.126907)" style="">
    <polygon points="456.97872 238.488 456.45423 279.32691 446.29273 315.73235 438.16969 312.70231 441.77632 279.33303 441.30222 234.1757 456.97872 238.488" fill="#ffb6b6"/>
    <ellipse cx="440.63007" cy="320.57804" rx="9.63433" ry="5.72038" transform="translate(46.30757 696.65636) rotate(-79.68097)" fill="#ffb6b6"/>
    <path d="M444.64807,189.86134s17.40715,.23962,17.39246,9.48652c-.0083,5.22083-1.1295,52.62318-4.24981,81.41974-2.40625,22.20666-7,28-7,28l-11-25,4.85735-93.90626Z" fill="#e6e6e6"/>
    <path d="M444.20053,273.29856h-58.7876c4.92749-10.99533,7.95685-21.46701,3.22119-29.79648l55.56641-3.22122c-2.77679,11.24445-3.11621,22.27954,0,33.0177Z" fill="#ffb6b6"/>
    <path d="M436.95273,175.85608l-23.35398-1.61062-9.66372,12.07965-4.89907,.89074c-7.34381,1.33524-12.5732,7.8888-12.24512,15.3458l1.9056,43.31268,55.82064,4.07026,13.3737-56.40211-16.10619-6.41205-4.83186-11.27434Z" fill="#e6e6e6"/>
    <g>
      <path d="M294.53066,188.92176c1.65693,1.49058,2.83981,3.2318,3.46456,4.92062l16.68132,13.2027-6.51458,7.75386-16.22013-14.22767c-1.74528-.44324-3.60149-1.436-5.25841-2.92658-3.78524-3.40522-5.0971-8.11837-2.93014-10.52715,2.16696-2.40878,6.99213-1.60101,10.77736,1.8042h0Z" fill="#ffb6b6"/>
      <path d="M412.46752,200.03661v.00003l-63.91645,43.15944-45.81651-31.88401,6.87858-12.45997,36.05991,20.95662,33.25501-25.53436c11.84186-11.12319,26.6836-8.96705,33.53945,5.76225Z" fill="#e6e6e6"/>
    </g>
    <circle cx="423.89065" cy="153.30238" r="17.32595" fill="#ffb6b6"/>
    <path d="M447.44074,149.04572v3.36005l-19.54004-5.5-14.64996,3.06995c-.17004-2.22998-.83002-4.41998-1.92999-6.35999,.76544,3.11154,.85107,5.51877,.03998,6.76001l-1.97003,.40997c-.31995-.87-.94-1.62994-1.75-2.08997-.07996-.04999-.17999-.09003-.26996-.06-.14001,.04999-.15002,.22998-.15002,.37,.02002,.73999,.03998,1.47998,.07001,2.21997l-5.65997,1.18005v-3.36005c-5.43011-12.21786,8.88177-22.79028,22.90997-22.89996,6.32983-.0495,12.04999,2.56,16.20001,6.69995,4.14001,4.15002,6.70001,9.87006,6.70001,16.20001Z" fill="#2f2e41"/>
    <path d="M458.43313,188.44404l-1.4756-.12217c.10507-.48251,.21013-.95895,.30608-1.44147,.81774-4.04957-.9822-9.20467-1.1147-13.09543-.69441,4.11063,.4934,9.16803-.73551,13.07098-.13705,.43368-5.4765,3.23228-5.62268,3.6598-5.90945-2.16102-12.06314-9.06597-19.03157-5.03298-4.12132,2.38522-8.82359,1.33977-13.50285,.24763-1.15832-.27035-1.31925-5.9899-2.46558-6.21465-2.05278-.40246-5.06763,4.79685-7,5l8-31c0-16.86402-1.56207-34.55742,19.80018-28.59431,5.37269,1.49975,10.69018,2.67528,14.65559,7.10965,3.96541,4.44045,6.78871,10.64614,7.7892,17.71303,.60304,4.26333,4.36744,18.73916,.39745,38.69992Z" fill="#2f2e41"/>
    <g>
      <polygon points="444.63823 500.18039 435.10166 500.40544 429.78582 457.56122 443.85939 457.22818 444.63823 500.18039" fill="#ffb7b7"/>
      <path d="M411.91948,520.07655h0c0,1.61103,1.14328,2.91706,2.55362,2.91706h18.92928s1.86279-7.48795,9.4577-10.71043l.52418,10.71043h9.76495l-1.18313-17.22188s2.61217-9.21376-2.81276-13.92358c-5.42499-4.70982-1.03095-4.05417-1.03095-4.05417l-2.13409-10.65904-14.7559,1.7352-.1085,16.7322-7.16093,16.60827-10.50335,5.18849c-.93485,.46179-1.54002,1.51399-1.54002,2.67743l-.00012,.00003Z" fill="#2f2e41"/>
    </g>
    <g>
      <polygon points="415.62444 493.19838 406.45713 495.83604 390.44322 455.74315 403.97162 451.84972 415.62444 493.19838" fill="#ffb7b7"/>
      <path d="M389.02547,520.74594h0c.40881,1.5583,1.84609,2.53146,3.21026,2.17358l18.30968-4.80346s-.09831-7.71555,6.43027-12.75982l3.22488,10.22684,9.44532-2.47794-5.5146-16.35794s.1886-9.57504-6.25391-12.75407c-6.44257-3.17902-2.02599-3.65986-2.02599-3.65986l-4.76906-9.7686-13.83258,5.42284,4.14099,16.21205-2.71205,17.88179-8.84293,7.68397c-.78707,.6839-1.10542,1.85522-.81019,2.98058l-.00011,.00006Z" fill="#2f2e41"/>
    </g>
    <path d="M438.79071,270.7676l6,2c9.38098,17.32587,13.35828,40.3338,12.83124,68.07819l-10.65781,124.61142h-17.43665l-12.76045-138.82181-22.4998,52.1048,16.46225,86.71701-16.46225,1.67839-33.1576-90.1717,23.0919-104.8017,54.58918-1.3946Z" fill="#2f2e41"/>
  </g>
</svg>