<?xml version="1.0" standalone="no"?>
<svg viewBox="0 0 200 200" xmlns="http://www.w3.org/2000/svg">
  <path fill="#8A3FFC" d="M21.1,-39.7C23,-35.6,17,-21,26.4,-12.6C35.9,-4.2,60.8,-2.1,67.5,3.9C74.3,9.9,62.8,19.8,51.7,25.3C40.6,30.8,29.8,31.8,21.2,38.8C12.7,45.8,6.3,58.7,2.7,54C-1,49.4,-1.9,27.2,-9.8,19.8C-17.7,12.4,-32.6,19.9,-40,19.1C-47.3,18.3,-47.1,9.1,-52.9,-3.3C-58.6,-15.8,-70.4,-31.7,-69.2,-43C-67.9,-54.3,-53.5,-61.1,-39.8,-58.3C-26.1,-55.6,-13.1,-43.3,-1.7,-40.3C9.7,-37.4,19.3,-43.8,21.1,-39.7Z" transform="translate(100 100)" />
</svg>
